HIERARCHY
ROOT Hips
{
	OFFSET 0.00000 0.00000 0.00000
	CHANNELS 6 Xposition Yposition Zposition Zrotation Yrotation Xrotation 
	JOINT LHipJoint
	{
		OFFSET 0 0 0
		CHANNELS 3 Zrotation Yrotation Xrotation
		JOINT LeftHip
		{
			OFFSET 1.38615 -1.80049 0.80104
			CHANNELS 3 Zrotation Yrotation Xrotation
			JOINT LeftKnee
			{
				OFFSET 2.50172 -6.87341 0.00000
				CHANNELS 3 Zrotation Yrotation Xrotation
				JOINT LeftAnkle
				{
					OFFSET 2.67523 -7.35014 0.00000
					CHANNELS 3 Zrotation Yrotation Xrotation
					JOINT LeftToe
					{
						OFFSET 0.17446 -0.47932 2.13155
						CHANNELS 3 Zrotation Yrotation Xrotation
						End Site
						{
							OFFSET 0.00000 -0.00000 1.10023
						}
					}
				}
			}
		}
	}
	JOINT RHipJoint
	{
		OFFSET 0 0 0
		CHANNELS 3 Zrotation Yrotation Xrotation
		JOINT RightHip
		{
			OFFSET -1.18047 -1.80049 0.80104
			CHANNELS 3 Zrotation Yrotation Xrotation
			JOINT RightKnee
			{
				OFFSET -2.59789 -7.13765 0.00000
				CHANNELS 3 Zrotation Yrotation Xrotation
				JOINT RightAnkle
				{
					OFFSET -2.62125 -7.20183 0.00000
					CHANNELS 3 Zrotation Yrotation Xrotation
					JOINT RightToe
					{
						OFFSET -0.31287 -0.85960 2.07814
						CHANNELS 3 Zrotation Yrotation Xrotation
						End Site
						{
							OFFSET -0.00000 -0.00000 1.11766
						}
					}
				}
			}
		}
	}
	JOINT lowerback
	{
		OFFSET 0 0 0
		CHANNELS 3 Zrotation Yrotation Xrotation
		JOINT Chest
		{
			OFFSET -0.01587 2.16157 -0.12309
			CHANNELS 3 Zrotation Yrotation Xrotation
			JOINT Chest2
			{
				OFFSET 0.04727 2.16674 -0.03569
				CHANNELS 3 Zrotation Yrotation Xrotation
				JOINT lowerneck
				{
					OFFSET 0 0 0
					CHANNELS 3 Zrotation Yrotation Xrotation
					JOINT Neck
					{
						OFFSET -0.08586 1.60335 0.32783
						CHANNELS 3 Zrotation Yrotation Xrotation
						JOINT Head
						{
							OFFSET 0.07583 1.65857 -0.31618
							CHANNELS 3 Zrotation Yrotation Xrotation
							End Site
							{
								OFFSET 0.03386 1.69434 -0.14584
							}
						}
					}
				}
				JOINT LeftCollar
				{
					OFFSET 0 0 0
					CHANNELS 3 Zrotation Yrotation Xrotation
					JOINT LeftShoulder
					{
						OFFSET 3.17393 1.01901 -0.52897
CHANNELS 3 Zrotation Xrotation Yrotation
						JOINT LeftElbow
						{
OFFSET 0 -5.252870 -0.000000
CHANNELS 3 Zrotation Xrotation Yrotation
							JOINT LeftWrist
							{
OFFSET 0 -3.510140 0.000000
CHANNELS 3 Zrotation Xrotation Yrotation
								JOINT lhand
								{
									OFFSET 0 0 0
CHANNELS 3 Zrotation Xrotation Yrotation
									JOINT LFingers
									{
OFFSET 0 -0.706180 -0.000000
CHANNELS 3 Zrotation Xrotation Yrotation
										End Site
										{
OFFSET 0 -0.569340 -0.000000
										}
									}
								}
								JOINT LThumb
								{
OFFSET 0 0.000000 0.000000
CHANNELS 3 Zrotation Xrotation Yrotation
									End Site
									{
OFFSET 0 -0.578030 0.578030
									}
								}
							}
						}
					}
				}
				JOINT RightCollar
				{
					OFFSET 0 0 0
					CHANNELS 3 Zrotation Yrotation Xrotation
					JOINT RightShoulder
					{
						OFFSET -2.99471 1.26495 -0.61125
CHANNELS 3 Zrotation Xrotation Yrotation
						JOINT RightElbow
						{
OFFSET 0 -5.287210 -0.000000
CHANNELS 3 Zrotation Xrotation Yrotation
							JOINT RightWrist
							{
OFFSET 0 -3.505440 0.000000
CHANNELS 3 Zrotation Xrotation Yrotation
								JOINT rhand
								{
									OFFSET 0 0 0
CHANNELS 3 Zrotation Xrotation Yrotation
									JOINT RFingers
									{
OFFSET 0 -0.885000 -0.000000
CHANNELS 3 Zrotation Xrotation Yrotation
										End Site
										{
OFFSET 0 -0.713510 -0.000000
										}
									}
								}
								JOINT RThumb
								{
OFFSET 0 0.000000 0.000000
CHANNELS 3 Zrotation Xrotation Yrotation
									End Site
									{
OFFSET 0 -0.724400 0.724400
									}
								}
							}
						}
					}
				}
			}
		}
	}
}
MOTION
Frames: 6
Frame Time: 0.008333333333333333
8.662200 18.461300 11.094800 -177.814000 -12.210600 -169.517000 0.000000 0.000000 0.000000 -19.263300 1.084400 -24.730600 1.018300 6.419800 18.007500 -0.141700 -8.501200 -2.530700 0.217300 -3.001000 -8.281600 0.000000 0.000000 0.000000 19.254300 4.414400 -10.332600 -5.558700 -13.986600 43.183800 0.391600 12.069500 -0.845600 -0.242200 3.166900 -8.743700 -2.843800 0.793800 -0.148700 0.678800 1.063200 1.273200 2.303400 0.489700 1.324300 -13.765100 -7.803900 -17.860400 8.709500 -9.136300 18.226700 3.980100 -4.353500 9.774800 0.000000 -0.000000 0.000000 3.241300 0.326900 -23.279400 14.566800 -23.539100 3.050800 -0.273700 6.856100 -37.464600 0.000000 0.000000 0.000000 -7.125000 0.000000 0.000000 -41.729700 62.462200 19.468100 0.000000 -0.000000 0.000000 -1.394900 -1.493100 18.693200 -15.736700 -25.162300 -3.533300 -12.121800 -5.284500 -9.843100 0.000000 0.000000 0.000000 7.125000 0.000000 -0.000000 10.573400 19.998300 6.429000
8.621217 18.461387 11.040994 -177.948299 -11.924587 -169.615775 0.000000 0.000000 0.000000 -19.540389 1.380637 -24.308902 0.996206 6.351784 17.808564 -0.133815 -8.447047 -2.704769 0.210888 -2.956725 -8.158392 0.000000 0.000000 0.000000 18.739026 4.523832 -11.182408 -5.980138 -14.407085 44.898146 0.427124 12.384626 -0.382312 -0.331530 3.694391 -10.218994 -3.088657 0.745539 -0.042474 0.630452 0.997004 1.346241 2.389611 0.452010 1.340676 -13.848712 -7.726180 -18.161229 8.939368 -9.014911 18.302254 4.089792 -4.270928 9.857112 0.000000 0.000000 0.000000 3.452886 0.278292 -23.915197 14.696940 -23.722180 3.103047 -0.352460 6.594780 -37.664749 0.000000 0.000000 0.000000 -7.125000 0.000000 0.000000 -42.061721 62.590867 19.779933 0.000000 0.000000 0.000000 -1.515682 -1.549592 19.248157 -15.852804 -25.320599 -3.582774 -12.340317 -5.475811 -10.589975 0.000000 0.000000 0.000000 7.125000 0.000000 0.000000 10.390754 19.237302 6.493463
8.579575 18.454584 10.993857 -178.232840 -11.689289 -169.611212 0.000000 0.000000 0.000000 -19.927264 1.413768 -24.000581 0.997784 6.356764 17.823119 -0.116110 -8.296886 -3.045569 0.211366 -2.960160 -8.167836 0.000000 0.000000 0.000000 18.052622 4.619998 -12.085131 -6.394248 -14.796936 46.538837 0.456272 12.642586 0.001310 -0.434053 4.218804 -11.694289 -3.464555 0.672873 0.053931 0.561144 0.899660 1.331336 2.527051 0.400761 1.273649 -13.755698 -7.609910 -18.127129 8.819061 -8.843686 18.204553 4.059429 -4.197150 9.784199 0.000000 0.000000 0.000000 3.600197 0.295425 -24.439887 14.813448 -23.885545 3.150090 -0.352141 6.704522 -37.862479 0.000000 0.000000 0.000000 -7.125000 0.000000 0.000000 -42.317522 62.737710 20.068900 0.000000 0.000000 0.000000 -1.600407 -1.607770 19.515017 -16.070046 -25.615216 -3.676368 -11.748773 -5.111299 -9.833989 0.000000 0.000000 0.000000 7.125000 0.000000 0.000000 10.839710 20.023138 6.586949
8.538531 18.442271 10.948535 -178.466846 -11.488107 -169.677119 0.000000 0.000000 0.000000 -20.274093 1.515342 -23.623501 0.993127 6.342382 17.781165 -0.104586 -8.201149 -3.267221 0.207765 -2.934892 -8.097590 0.000000 0.000000 0.000000 17.443812 4.630081 -12.938882 -6.802167 -15.159868 48.116541 0.469035 12.668676 0.434904 -0.467778 4.386773 -12.167499 -3.779946 0.590725 0.263919 0.529310 0.782675 1.286619 2.667834 0.342726 1.114769 -13.663280 -7.473909 -17.943292 8.563022 -8.627958 18.011571 3.990058 -4.119342 9.639367 0.000000 0.000000 0.000000 3.719254 0.373683 -24.978733 14.915186 -24.027756 3.191390 -0.579362 6.612304 -38.089555 0.000000 0.000000 0.000000 -7.125000 0.000000 0.000000 -42.831950 62.845192 20.469012 0.000000 0.000000 0.000000 -1.706009 -1.652710 19.896768 -16.268080 -25.882592 -3.762359 -11.402232 -5.066110 -9.226064 0.000000 0.000000 0.000000 7.125000 0.000000 0.000000 11.112550 20.647471 6.603256
8.499439 18.430018 10.901943 -178.762078 -11.295167 -169.778167 0.000000 0.000000 0.000000 -20.729745 1.776290 -23.271405 0.986797 6.322712 17.723702 -0.100993 -8.217905 -3.386363 0.202811 -2.899990 -8.000476 0.000000 0.000000 0.000000 16.795777 4.536734 -13.766836 -7.201309 -15.496196 49.626695 0.456802 12.421169 0.680932 -0.487843 4.477688 -12.424798 -4.130203 0.509780 0.546937 0.461245 0.661376 1.256346 2.790993 0.282629 0.931320 -13.619428 -7.366387 -17.881920 8.407862 -8.451453 17.904775 3.956225 -4.050294 9.559581 0.000000 0.000000 0.000000 3.904857 0.407750 -25.486938 15.003949 -24.151522 3.227572 -1.106083 6.277486 -38.022773 0.000000 0.000000 0.000000 -7.125000 0.000000 0.000000 -43.245891 62.658196 20.516315 0.000000 0.000000 0.000000 -1.792406 -1.691567 20.394718 -16.452787 -26.130529 -3.843335 -11.515871 -5.218069 -9.350444 0.000000 0.000000 0.000000 7.125000 0.000000 0.000000 11.026112 20.518058 6.581830
8.461715 18.423002 10.853563 -179.113270 -11.071512 -169.874544 0.000000 0.000000 0.000000 -21.275022 2.148450 -22.986011 0.983038 6.311048 17.689577 -0.096316 -8.276780 -3.575017 0.212260 -2.963926 -8.178471 0.000000 0.000000 0.000000 16.108076 4.363404 -14.612777 -7.586788 -15.804565 51.056582 0.421992 12.002348 0.479266 -0.571527 4.827660 -13.420306 -4.504963 0.441268 0.793995 0.334454 0.555939 1.268633 2.868767 0.228025 0.811872 -13.576979 -7.291656 -18.030696 8.364893 -8.332698 17.988868 3.950523 -3.994066 9.597458 0.000000 0.000000 0.000000 4.174146 0.318386 -25.853274 15.068055 -24.240804 3.253815 -1.879106 5.859956 -37.559668 0.000000 0.000000 0.000000 -7.125000 0.000000 0.000000 -43.382835 62.117735 20.045424 0.000000 0.000000 0.000000 -1.813220 -1.786230 20.893764 -16.679727 -26.433138 -3.943967 -11.778395 -5.443775 -9.987955 0.000000 0.000000 0.000000 7.125000 0.000000 0.000000 10.810569 19.868753 6.609794
